<mxfile host="app.diagrams.net" modified="2023-07-12T21:17:53.374Z" agent="Mozilla/5.0 (Macintosh; Intel Mac OS X 10_15_7) AppleWebKit/537.36 (KHTML, like Gecko) Chrome/114.0.0.0 Safari/537.36" version="21.5.2" etag="_KUQyVcqL4U-86RiIoCU" type="github">
  <diagram name="Page-1" id="2yUYT4Y6L0JA3ZPhGoXJ">
    <mxGraphModel>
      <root>
        <mxCell id="0" />
        <mxCell id="1" parent="0" />
      </root>
    </mxGraphModel>
  </diagram>
</mxfile>
